<mxfile host="app.diagrams.net" modified="2023-08-09T10:03:02.687Z" agent="Mozilla/5.0 (X11; Linux x86_64; rv:109.0) Gecko/20100101 Firefox/115.0" version="21.3.6" etag="jOVvPr5bo3E50qJWoJ9L" type="github">
  <diagram name="Page-1" id="KdFvX4GHErDsVlXzVz_E">
    <mxGraphModel>
      <root>
        <mxCell id="0" />
        <mxCell id="1" parent="0" />
      </root>
    </mxGraphModel>
  </diagram>
</mxfile>
